<svg width="310.527" height="19.766" viewBox="0 0 310.527 19.766" xmlns="http://www.w3.org/2000/svg"><g id="svgGroup" stroke-linecap="round" fill-rule="evenodd" font-size="9pt" stroke="#000" stroke-width="0.25mm" fill="#ff9900" style="stroke:#000;stroke-width:0.25mm;fill:#ff9900"><path d="M 160.391 14.482 L 160.215 5.068 L 162.295 4.805 L 162.637 6.289 L 164.355 4.805 L 166.289 4.805 A 0.711 0.711 0 0 1 166.591 4.876 Q 166.792 4.97 167.002 5.186 A 3.144 3.144 0 0 1 167.301 5.521 Q 167.589 5.9 167.637 6.26 L 169.316 4.805 L 171.67 4.805 A 0.225 0.225 0 0 1 171.741 4.819 Q 171.854 4.858 172.054 5.002 A 4.209 4.209 0 0 1 172.144 5.068 A 5.168 5.168 0 0 1 172.303 5.195 Q 172.467 5.33 172.564 5.438 A 1.041 1.041 0 0 1 172.622 5.508 A 0.65 0.65 0 0 1 172.754 5.908 L 172.412 14.424 L 170.234 14.6 L 170.195 7.109 A 0.499 0.499 0 0 0 170.125 7.092 Q 170.01 7.072 169.802 7.071 A 4.958 4.958 0 0 0 169.756 7.07 A 4.577 4.577 0 0 0 169.093 7.116 Q 168.734 7.169 168.428 7.282 A 2.873 2.873 0 0 0 168.418 7.285 L 167.734 7.539 L 167.432 14.424 L 165.332 14.6 L 165.293 7.109 A 0.499 0.499 0 0 0 165.222 7.092 Q 165.108 7.072 164.899 7.071 A 4.958 4.958 0 0 0 164.854 7.07 A 5.225 5.225 0 0 0 164.23 7.105 Q 163.914 7.143 163.645 7.223 A 2.804 2.804 0 0 0 163.457 7.285 L 162.793 7.52 L 162.529 14.346 L 160.391 14.482 Z M 192.139 6.807 L 191.943 12.363 L 192.148 12.344 Q 192.471 12.295 192.808 12.251 A 12 12 0 0 0 193.327 12.171 A 13.504 13.504 0 0 0 193.506 12.139 A 16.126 16.126 0 0 0 194.014 12.045 Q 194.534 11.94 194.883 11.826 Q 195.527 9.16 195.527 6.24 Q 195.527 5.146 195.42 4.346 Q 193.508 3.987 190.858 3.887 A 57.556 57.556 0 0 0 188.682 3.848 L 188.418 3.848 L 188.857 1.484 L 189.063 1.484 A 39.081 39.081 0 0 1 192.022 1.59 Q 193.931 1.736 195.518 2.08 Q 195.948 2.168 196.2 2.249 A 2.276 2.276 0 0 1 196.304 2.285 A 1.366 1.366 0 0 1 196.575 2.426 Q 196.696 2.506 196.816 2.617 A 6.172 6.172 0 0 1 197.223 3.03 A 6.958 6.958 0 0 1 197.314 3.135 A 6.347 6.347 0 0 1 197.551 3.442 Q 197.882 3.902 197.918 4.177 A 0.556 0.556 0 0 1 197.92 4.189 A 12.943 12.943 0 0 1 197.979 4.956 Q 197.998 5.36 197.998 5.807 A 15.388 15.388 0 0 1 197.998 5.811 A 23.093 23.093 0 0 1 197.961 7.092 A 27.068 27.068 0 0 1 197.92 7.705 Q 197.842 8.701 197.686 9.668 A 22.161 22.161 0 0 1 197.425 11.079 Q 197.167 12.248 196.816 13.105 A 2.018 2.018 0 0 1 196.745 13.27 Q 196.665 13.432 196.575 13.523 A 0.554 0.554 0 0 1 196.558 13.54 Q 196.45 13.64 196.177 13.746 A 4.02 4.02 0 0 1 195.986 13.813 Q 195.657 13.922 195.211 14.022 A 13.749 13.749 0 0 1 194.927 14.082 A 14.472 14.472 0 0 1 194.261 14.199 A 19.221 19.221 0 0 1 193.525 14.297 Q 192.09 14.463 189.697 14.58 L 189.697 5.225 L 192.1 4.707 L 192.139 6.807 Z M 96.523 12.246 L 96.484 8.086 L 98.662 7.686 A 1866.002 1866.002 0 0 1 98.689 9.022 Q 98.7 9.546 98.709 10.016 A 943.933 943.933 0 0 1 98.726 10.903 A 1019.422 1019.422 0 0 0 98.743 11.843 Q 98.75 12.21 98.757 12.535 A 479.01 479.01 0 0 0 98.77 13.145 A 789.221 789.221 0 0 1 98.779 13.575 Q 98.787 13.996 98.794 14.318 A 241.307 241.307 0 0 1 98.799 14.59 L 98.818 15.42 L 98.818 15.791 L 98.818 15.908 Q 98.818 16.406 98.076 16.934 A 42.505 42.505 0 0 1 93.457 19.766 L 92.266 17.627 A 157.916 157.916 0 0 0 93.741 16.928 Q 95.557 16.055 96.499 15.529 A 16.13 16.13 0 0 0 96.709 15.41 L 96.563 13.184 L 95.166 14.404 L 93.545 14.404 Q 92.852 14.404 92.627 13.936 L 92.49 13.643 A 10.366 10.366 0 0 1 91.915 11.708 Q 91.602 10.151 91.602 8.174 A 20.63 20.63 0 0 1 91.612 7.509 Q 91.645 6.468 91.793 5.993 A 1.134 1.134 0 0 1 91.885 5.771 A 0.376 0.376 0 0 1 91.978 5.665 Q 92.141 5.531 92.524 5.415 A 14.409 14.409 0 0 1 92.808 5.333 Q 93.244 5.21 93.824 5.073 A 39.432 39.432 0 0 1 93.862 5.063 A 48.238 48.238 0 0 1 95.498 4.707 Q 96.328 4.541 97.158 4.395 L 98.77 4.102 L 99.248 6.348 L 96.172 6.826 A 59.805 59.805 0 0 0 95.58 6.924 Q 94.396 7.127 94.063 7.246 Q 93.974 7.599 93.966 8.199 A 9.235 9.235 0 0 0 93.965 8.33 A 19.066 19.066 0 0 0 94.023 9.865 Q 94.141 11.327 94.502 12.344 A 28.794 28.794 0 0 0 95.112 12.338 Q 95.974 12.319 96.523 12.246 Z M 39.502 13.301 L 39.326 4.824 L 41.641 4.346 L 41.826 12.227 A 4.145 4.145 0 0 0 42.043 12.293 Q 42.245 12.348 42.391 12.36 A 0.922 0.922 0 0 0 42.466 12.363 Q 42.624 12.363 42.749 12.361 A 9.052 9.052 0 0 0 42.856 12.358 Q 42.991 12.354 43.164 12.326 A 3.715 3.715 0 0 0 43.232 12.314 A 3.863 3.863 0 0 0 43.82 12.145 A 5.223 5.223 0 0 0 44.365 11.904 L 44.443 4.922 L 46.66 4.648 L 46.777 15.635 A 0.85 0.85 0 0 1 46.638 16.091 Q 46.551 16.229 46.411 16.363 A 2.364 2.364 0 0 1 46.143 16.582 A 155.544 155.544 0 0 1 45.386 17.103 Q 44.331 17.825 43.76 18.184 L 42.354 19.053 A 38.706 38.706 0 0 1 41.214 19.682 A 34.99 34.99 0 0 1 41.055 19.766 L 39.863 17.627 A 146.411 146.411 0 0 0 41.436 16.883 Q 43.691 15.797 44.668 15.205 L 44.521 12.803 L 43.066 14.404 L 40.566 14.404 A 0.893 0.893 0 0 1 40.272 14.319 Q 40.16 14.266 40.047 14.181 A 1.752 1.752 0 0 1 39.971 14.121 A 1.686 1.686 0 0 1 39.734 13.89 Q 39.502 13.61 39.502 13.301 Z M 124.326 11.172 L 123.682 11.172 A 3.996 3.996 0 0 1 123.369 11.158 Q 123.013 11.13 122.496 11.044 A 22.905 22.905 0 0 1 121.953 10.947 L 121.211 14.561 L 118.887 14.043 L 120.029 8.965 L 121.357 2.324 A 49.524 49.524 0 0 1 124.805 1.843 A 56.94 56.94 0 0 1 126.016 1.729 L 127.559 8.428 L 128.75 14.307 L 126.377 14.688 L 125.332 8.926 L 124.316 4.063 A 3.717 3.717 0 0 0 123.546 4.146 A 4.556 4.556 0 0 0 123.154 4.248 L 122.314 9.063 L 124.834 9.121 L 124.531 11.162 A 2.366 2.366 0 0 1 124.382 11.171 A 2.037 2.037 0 0 1 124.326 11.172 Z M 14.727 15.107 L 14.814 8.984 Q 14.814 7.881 14.741 7.248 A 4.764 4.764 0 0 0 14.697 6.943 L 14.014 6.943 Q 13.428 6.943 13.105 7.061 Q 12.588 7.236 12.276 7.383 L 12.129 14.287 L 10.01 14.404 Q 9.98 10.645 9.902 8.721 A 134.36 134.36 0 0 1 9.831 6.879 Q 9.808 6.152 9.797 5.495 A 71.815 71.815 0 0 1 9.785 4.248 A 92.536 92.536 0 0 1 9.788 3.537 Q 9.797 2.356 9.834 0.488 L 12.168 0 L 12.275 6.182 L 13.828 4.805 L 15.996 4.805 Q 16.357 4.805 16.66 5.078 Q 17.197 5.576 17.217 5.957 A 15.063 15.063 0 0 1 17.236 6.729 L 17.236 7.49 Q 17.236 8.799 17.197 9.365 L 16.895 14.746 L 14.727 15.107 Z M 250.947 15.107 L 251.035 8.984 Q 251.035 7.881 250.962 7.248 A 4.764 4.764 0 0 0 250.918 6.943 L 250.234 6.943 Q 249.648 6.943 249.326 7.061 Q 248.809 7.236 248.496 7.383 L 248.35 14.287 L 246.23 14.404 Q 246.201 10.645 246.123 8.721 A 134.36 134.36 0 0 1 246.052 6.879 Q 246.029 6.152 246.017 5.495 A 71.815 71.815 0 0 1 246.006 4.248 A 92.536 92.536 0 0 1 246.009 3.537 Q 246.018 2.356 246.055 0.488 L 248.389 0 L 248.496 6.182 L 250.049 4.805 L 252.217 4.805 Q 252.578 4.805 252.881 5.078 Q 253.418 5.576 253.438 5.957 A 15.063 15.063 0 0 1 253.457 6.729 L 253.457 7.49 Q 253.457 8.799 253.418 9.365 L 253.115 14.746 L 250.947 15.107 Z M 177.793 14.6 L 177.617 19.365 L 175.557 19.502 L 175.479 8.301 L 177.754 7.861 L 177.852 12.666 L 179.629 12.324 Q 180.023 10.715 180.133 9.454 A 10.677 10.677 0 0 0 180.176 8.525 A 13.674 13.674 0 0 0 180.166 7.998 Q 180.146 7.474 180.082 7.104 A 3.984 3.984 0 0 0 180.078 7.08 A 1.12 1.12 0 0 0 179.786 6.987 Q 179.079 6.839 177.04 6.812 A 73.584 73.584 0 0 0 176.084 6.807 L 175.498 6.807 A 7.373 7.373 0 0 0 175.122 6.816 A 6.283 6.283 0 0 0 174.961 6.826 L 175.391 4.561 A 17.481 17.481 0 0 1 176 4.524 A 13.365 13.365 0 0 1 176.558 4.512 Q 177.015 4.512 177.595 4.541 A 31.266 31.266 0 0 1 177.788 4.551 A 34.253 34.253 0 0 1 179.189 4.658 A 24.84 24.84 0 0 1 180.115 4.772 Q 181.927 5.032 182.231 5.432 A 0.385 0.385 0 0 1 182.236 5.439 Q 182.598 5.947 182.598 7.637 Q 182.598 10.576 181.641 13.525 A 2.651 2.651 0 0 1 181.559 13.747 A 1.931 1.931 0 0 1 181.46 13.95 A 0.404 0.404 0 0 1 181.187 14.15 A 0.57 0.57 0 0 1 181.133 14.16 L 177.793 14.6 Z M 0.625 14.307 L 0 11.68 L 5.557 4.502 L 5.322 4.043 L 5.059 4.043 A 27.712 27.712 0 0 1 1.274 3.775 A 31.705 31.705 0 0 1 0.176 3.604 L 0.557 1.445 L 2.08 1.611 A 115.599 115.599 0 0 0 3.611 1.764 Q 5.361 1.926 6.642 1.981 A 33.171 33.171 0 0 0 7.236 2.002 L 8.125 4.707 L 6.943 6.357 L 5.537 8.232 L 4.043 10.137 L 2.617 11.904 L 2.744 12.285 L 3.047 12.285 A 26.785 26.785 0 0 1 6.385 12.502 A 31.893 31.893 0 0 1 7.979 12.744 L 7.617 14.961 A 62.444 62.444 0 0 1 5.981 14.807 A 67.87 67.87 0 0 1 5.869 14.795 L 2.295 14.443 Q 1.416 14.365 0.625 14.307 Z M 158.154 13.008 L 157.715 15.107 A 46.489 46.489 0 0 1 155.37 14.812 Q 153.136 14.468 151.619 13.96 A 12.796 12.796 0 0 1 151.406 13.887 Q 150.986 13.73 150.85 12.09 Q 150.732 10.586 151.104 9.482 Q 151.213 9.162 151.35 9.042 A 0.285 0.285 0 0 1 151.475 8.975 A 12.526 12.526 0 0 1 153.124 8.656 A 14.026 14.026 0 0 1 153.408 8.623 L 155.439 8.398 L 155.4 7.021 Q 154.336 6.816 153.286 6.694 A 48.648 48.648 0 0 1 151.201 6.406 L 151.719 4.268 L 153.369 4.512 A 31.04 31.04 0 0 1 154.695 4.734 Q 156.009 4.985 156.913 5.301 A 9.133 9.133 0 0 1 156.973 5.322 Q 157.514 5.519 157.601 6.053 A 1.349 1.349 0 0 1 157.617 6.27 L 157.656 11.621 L 155.576 11.826 L 155.518 10.156 L 154.961 10.264 A 17.978 17.978 0 0 0 153.496 10.569 A 16.069 16.069 0 0 0 153.174 10.654 Q 153.099 11.013 153.077 11.287 A 2.739 2.739 0 0 0 153.066 11.514 Q 153.066 11.924 153.093 12.182 A 2.645 2.645 0 0 0 153.105 12.285 Q 154.158 12.524 156.082 12.768 A 88.074 88.074 0 0 0 157.354 12.92 L 158.154 13.008 Z M 235.85 13.008 L 235.41 15.107 A 46.489 46.489 0 0 1 233.065 14.812 Q 230.831 14.468 229.314 13.96 A 12.796 12.796 0 0 1 229.102 13.887 Q 228.682 13.73 228.545 12.09 Q 228.428 10.586 228.799 9.482 Q 228.908 9.162 229.045 9.042 A 0.285 0.285 0 0 1 229.17 8.975 A 12.526 12.526 0 0 1 230.82 8.656 A 14.026 14.026 0 0 1 231.104 8.623 L 233.135 8.398 L 233.096 7.021 Q 232.031 6.816 230.981 6.694 A 48.648 48.648 0 0 1 228.896 6.406 L 229.414 4.268 L 231.064 4.512 A 31.04 31.04 0 0 1 232.39 4.734 Q 233.704 4.985 234.608 5.301 A 9.133 9.133 0 0 1 234.668 5.322 Q 235.209 5.519 235.296 6.053 A 1.349 1.349 0 0 1 235.313 6.27 L 235.352 11.621 L 233.271 11.826 L 233.213 10.156 L 232.656 10.264 A 17.978 17.978 0 0 0 231.191 10.569 A 16.069 16.069 0 0 0 230.869 10.654 Q 230.795 11.013 230.772 11.287 A 2.739 2.739 0 0 0 230.762 11.514 Q 230.762 11.924 230.788 12.182 A 2.645 2.645 0 0 0 230.801 12.285 Q 231.853 12.524 233.778 12.768 A 88.074 88.074 0 0 0 235.049 12.92 L 235.85 13.008 Z M 32.09 7.832 L 32.09 8.623 A 38.932 38.932 0 0 0 32.124 10.3 Q 32.16 11.128 32.233 11.861 A 20.793 20.793 0 0 0 32.334 12.705 L 34.258 12.607 A 17.084 17.084 0 0 0 34.76 9.402 A 15.318 15.318 0 0 0 34.785 8.525 Q 34.785 7.725 34.678 7.1 A 1.469 1.469 0 0 0 34.326 6.995 Q 33.453 6.82 30.944 6.808 A 80.064 80.064 0 0 0 30.537 6.807 L 30.039 6.807 A 4.953 4.953 0 0 0 29.824 6.812 A 6.464 6.464 0 0 0 29.59 6.826 L 30.01 4.561 A 7.848 7.848 0 0 0 30.17 4.55 A 6.217 6.217 0 0 0 30.317 4.536 A 2.798 2.798 0 0 1 30.605 4.521 L 30.898 4.502 L 31.719 4.502 A 16.735 16.735 0 0 1 33.745 4.631 A 22.633 22.633 0 0 1 35.957 5.02 A 2.148 2.148 0 0 1 36.302 5.136 Q 36.477 5.214 36.601 5.317 A 0.813 0.813 0 0 1 36.855 5.674 A 3.241 3.241 0 0 1 36.977 6.145 Q 37.073 6.656 37.099 7.417 A 17.667 17.667 0 0 1 37.109 8.027 A 18.456 18.456 0 0 1 36.201 13.789 A 2.575 2.575 0 0 1 36.128 13.995 Q 36.078 14.12 36.021 14.219 Q 35.923 14.386 35.688 14.443 A 0.865 0.865 0 0 1 35.664 14.448 A 7.01 7.01 0 0 1 35.461 14.488 Q 35.338 14.51 35.199 14.532 A 12.827 12.827 0 0 1 35.068 14.551 A 27.419 27.419 0 0 1 34.395 14.639 Q 33.672 14.707 33.398 14.707 A 34.013 34.013 0 0 1 33.115 14.706 A 41.556 41.556 0 0 1 32.812 14.702 A 16.327 16.327 0 0 1 32.485 14.694 A 21.16 21.16 0 0 1 32.129 14.678 A 14.389 14.389 0 0 1 31.706 14.651 Q 31.072 14.6 30.811 14.507 A 0.904 0.904 0 0 1 30.581 14.388 A 0.687 0.687 0 0 1 30.347 14.092 A 2.066 2.066 0 0 1 30.286 13.923 Q 30.195 13.638 30.107 13.154 A 16.128 16.128 0 0 1 29.907 11.599 Q 29.843 10.829 29.835 9.973 A 26.502 26.502 0 0 1 29.834 9.727 A 26.954 26.954 0 0 1 29.873 8.271 L 32.09 7.832 Z M 271.27 7.832 L 271.27 8.623 A 38.932 38.932 0 0 0 271.304 10.3 Q 271.34 11.128 271.413 11.861 A 20.793 20.793 0 0 0 271.514 12.705 L 273.438 12.607 A 17.084 17.084 0 0 0 273.94 9.402 A 15.318 15.318 0 0 0 273.965 8.525 Q 273.965 7.725 273.857 7.1 A 1.469 1.469 0 0 0 273.506 6.995 Q 272.632 6.82 270.124 6.808 A 80.064 80.064 0 0 0 269.717 6.807 L 269.219 6.807 A 4.953 4.953 0 0 0 269.004 6.812 A 6.464 6.464 0 0 0 268.77 6.826 L 269.189 4.561 A 7.848 7.848 0 0 0 269.349 4.55 A 6.217 6.217 0 0 0 269.497 4.536 A 2.798 2.798 0 0 1 269.785 4.521 L 270.078 4.502 L 270.898 4.502 A 16.735 16.735 0 0 1 272.925 4.631 A 22.633 22.633 0 0 1 275.137 5.02 A 2.148 2.148 0 0 1 275.481 5.136 Q 275.657 5.214 275.781 5.317 A 0.813 0.813 0 0 1 276.035 5.674 A 3.241 3.241 0 0 1 276.156 6.145 Q 276.253 6.656 276.279 7.417 A 17.667 17.667 0 0 1 276.289 8.027 A 18.456 18.456 0 0 1 275.381 13.789 A 2.575 2.575 0 0 1 275.308 13.995 Q 275.258 14.12 275.2 14.219 Q 275.102 14.386 274.867 14.443 A 0.865 0.865 0 0 1 274.844 14.448 A 7.01 7.01 0 0 1 274.641 14.488 Q 274.518 14.51 274.378 14.532 A 12.827 12.827 0 0 1 274.248 14.551 A 27.419 27.419 0 0 1 273.574 14.639 Q 272.852 14.707 272.578 14.707 A 34.013 34.013 0 0 1 272.295 14.706 A 41.556 41.556 0 0 1 271.992 14.702 A 16.327 16.327 0 0 1 271.665 14.694 A 21.16 21.16 0 0 1 271.309 14.678 A 14.389 14.389 0 0 1 270.886 14.651 Q 270.252 14.6 269.99 14.507 A 0.904 0.904 0 0 1 269.761 14.388 A 0.687 0.687 0 0 1 269.526 14.092 A 2.066 2.066 0 0 1 269.466 13.923 Q 269.375 13.638 269.287 13.154 A 16.128 16.128 0 0 1 269.086 11.599 Q 269.023 10.829 269.015 9.973 A 26.502 26.502 0 0 1 269.014 9.727 A 26.954 26.954 0 0 1 269.053 8.271 L 271.27 7.832 Z M 200.43 14.844 L 200.01 12.402 Q 202.871 12.188 204.395 11.748 A 5.717 5.717 0 0 0 204.445 11.284 Q 204.463 11.022 204.463 10.728 A 19.938 19.938 0 0 0 204.456 10.177 A 15.8 15.8 0 0 0 204.434 9.668 L 200.967 8.408 Q 200.615 8.281 200.439 7.944 Q 200.307 7.691 200.225 7.318 A 4.479 4.479 0 0 1 200.176 7.061 Q 199.98 5.859 199.98 5.225 Q 199.98 4.219 200.029 3.77 Q 200.106 2.983 201.021 2.696 A 2.574 2.574 0 0 1 201.055 2.686 A 24.905 24.905 0 0 1 203.144 2.039 Q 204.223 1.754 205.442 1.518 A 42.728 42.728 0 0 1 206.27 1.367 L 206.865 3.721 L 205.615 3.896 A 45.002 45.002 0 0 0 204.337 4.103 Q 203.308 4.285 202.529 4.482 Q 202.49 4.736 202.49 5.146 Q 202.49 5.839 202.517 6.285 A 8.151 8.151 0 0 0 202.529 6.465 L 206.133 8.047 A 1.367 1.367 0 0 1 206.899 8.839 A 1.747 1.747 0 0 1 206.934 8.936 A 2.547 2.547 0 0 1 206.959 9.019 Q 206.992 9.14 206.992 9.199 Q 206.992 9.263 206.982 9.447 A 24.915 24.915 0 0 1 206.978 9.536 A 34.276 34.276 0 0 1 206.969 9.676 Q 206.956 9.902 206.934 10.225 A 37.114 37.114 0 0 1 206.87 11.043 Q 206.812 11.686 206.738 12.202 A 2.679 2.679 0 0 1 206.647 12.622 Q 206.494 13.111 206.167 13.325 Q 205.742 13.604 205.146 13.823 A 7.159 7.159 0 0 1 205.063 13.853 A 14.027 14.027 0 0 1 204.212 14.122 A 16.722 16.722 0 0 1 203.662 14.268 Q 202.468 14.545 200.518 14.831 A 78.288 78.288 0 0 1 200.43 14.844 Z M 81.836 14.482 L 81.66 5.068 L 83.74 4.805 L 84.082 6.289 L 85.801 4.805 L 88.203 4.805 Q 88.389 4.805 88.721 5.088 Q 89.147 5.439 89.247 5.733 A 0.542 0.542 0 0 1 89.277 5.908 L 88.936 14.424 L 86.758 14.6 L 86.719 7.061 A 0.626 0.626 0 0 0 86.63 7.039 Q 86.539 7.023 86.414 7.022 A 2.094 2.094 0 0 0 86.396 7.021 A 3.793 3.793 0 0 0 86.2 7.026 A 2.913 2.913 0 0 0 86.021 7.041 A 4.071 4.071 0 0 0 85.809 7.071 A 5.069 5.069 0 0 0 85.654 7.1 Q 85.324 7.156 85.08 7.227 A 2.786 2.786 0 0 0 84.902 7.285 L 84.18 7.549 L 83.916 14.326 L 81.836 14.482 Z M 23.008 14.385 L 21.006 14.307 A 0.564 0.564 0 0 1 20.81 14.244 Q 20.63 14.151 20.43 13.926 A 2.762 2.762 0 0 1 20.172 13.613 Q 19.916 13.247 19.902 12.91 L 19.707 4.883 L 21.992 4.639 L 22.227 12.197 A 1.593 1.593 0 0 0 22.949 12.363 A 1.693 1.693 0 0 0 23.292 12.322 Q 23.816 12.212 24.675 11.806 A 14.965 14.965 0 0 0 24.756 11.768 L 24.98 4.785 L 27.236 4.785 L 27.09 14.307 L 25.469 14.502 L 25.049 12.939 L 23.008 14.385 Z M 52.617 14.385 L 50.615 14.307 A 0.564 0.564 0 0 1 50.419 14.244 Q 50.239 14.151 50.039 13.926 A 2.762 2.762 0 0 1 49.781 13.613 Q 49.525 13.247 49.512 12.91 L 49.316 4.883 L 51.602 4.639 L 51.836 12.197 A 1.593 1.593 0 0 0 52.559 12.363 A 1.693 1.693 0 0 0 52.901 12.322 Q 53.425 12.212 54.285 11.806 A 14.965 14.965 0 0 0 54.365 11.768 L 54.59 4.785 L 56.846 4.785 L 56.699 14.307 L 55.078 14.502 L 54.658 12.939 L 52.617 14.385 Z M 281.826 14.385 L 279.824 14.307 A 0.564 0.564 0 0 1 279.628 14.244 Q 279.448 14.151 279.248 13.926 A 2.762 2.762 0 0 1 278.99 13.613 Q 278.734 13.247 278.721 12.91 L 278.525 4.883 L 280.811 4.639 L 281.045 12.197 A 1.593 1.593 0 0 0 281.768 12.363 A 1.693 1.693 0 0 0 282.11 12.322 Q 282.634 12.212 283.494 11.806 A 14.965 14.965 0 0 0 283.574 11.768 L 283.799 4.785 L 286.055 4.785 L 285.908 14.307 L 284.287 14.502 L 283.867 12.939 L 281.826 14.385 Z M 64.209 14.58 L 63.926 2.725 A 51.154 51.154 0 0 1 70.127 1.582 L 70.527 3.906 L 66.309 4.365 L 66.426 7.48 L 70.01 7.324 L 69.912 9.648 L 66.465 9.541 L 66.309 14.404 L 64.209 14.58 Z M 135.889 1.729 L 136.152 3.701 L 134.473 3.887 L 134.492 8.027 L 134.209 12.559 L 135.996 12.627 L 135.83 14.648 Q 132.44 14.601 130.348 14.245 A 16.921 16.921 0 0 1 130.254 14.229 L 130.449 12.402 L 132.139 12.471 L 131.992 4.043 A 83.025 83.025 0 0 0 130.195 4.141 L 130.01 2.266 A 35.233 35.233 0 0 1 133.408 1.895 L 135.889 1.729 Z M 237.773 15.02 L 237.5 12.842 L 239.59 12.715 A 24.859 24.859 0 0 0 241.533 12.52 L 241.602 11.289 L 238.174 9.941 A 0.794 0.794 0 0 1 237.787 9.62 A 1.094 1.094 0 0 1 237.715 9.487 Q 237.559 9.15 237.559 8.955 A 12.637 12.637 0 0 1 237.559 8.887 Q 237.559 8.755 237.563 8.709 A 0.372 0.372 0 0 1 237.563 8.706 Q 237.568 8.652 237.588 8.447 L 237.803 6.602 A 1.496 1.496 0 0 1 237.95 6.102 Q 238.15 5.712 238.594 5.518 Q 238.921 5.369 239.378 5.243 A 8.958 8.958 0 0 1 239.678 5.166 Q 241.016 4.854 241.553 4.746 L 242.5 4.541 A 108.802 108.802 0 0 1 242.865 4.472 Q 243.061 4.435 243.232 4.404 L 243.682 6.641 L 239.873 7.207 L 239.717 8.145 L 243.32 9.824 A 0.975 0.975 0 0 1 243.689 10.108 Q 243.924 10.41 243.884 10.917 A 2.091 2.091 0 0 1 243.877 10.986 L 243.613 13.34 A 0.953 0.953 0 0 1 243.173 14.036 Q 242.879 14.237 242.393 14.346 Q 241.182 14.678 239.712 14.839 A 109.191 109.191 0 0 1 239.117 14.903 Q 238.369 14.98 237.979 15.008 A 7.504 7.504 0 0 1 237.773 15.02 Z M 295.352 15.02 L 295.078 12.842 L 297.168 12.715 A 24.859 24.859 0 0 0 299.111 12.52 L 299.18 11.289 L 295.752 9.941 A 0.794 0.794 0 0 1 295.365 9.62 A 1.094 1.094 0 0 1 295.293 9.487 Q 295.137 9.15 295.137 8.955 A 12.637 12.637 0 0 1 295.137 8.887 Q 295.138 8.755 295.141 8.709 A 0.372 0.372 0 0 1 295.142 8.706 Q 295.146 8.652 295.166 8.447 L 295.381 6.602 A 1.496 1.496 0 0 1 295.528 6.102 Q 295.728 5.712 296.172 5.518 Q 296.499 5.369 296.956 5.243 A 8.958 8.958 0 0 1 297.256 5.166 Q 298.594 4.854 299.131 4.746 L 300.078 4.541 A 108.802 108.802 0 0 1 300.443 4.472 Q 300.639 4.435 300.811 4.404 L 301.26 6.641 L 297.451 7.207 L 297.295 8.145 L 300.898 9.824 A 0.975 0.975 0 0 1 301.267 10.108 Q 301.502 10.41 301.462 10.917 A 2.091 2.091 0 0 1 301.455 10.986 L 301.191 13.34 A 0.953 0.953 0 0 1 300.751 14.036 Q 300.457 14.237 299.971 14.346 Q 298.76 14.678 297.29 14.839 A 109.191 109.191 0 0 1 296.695 14.903 Q 295.947 14.98 295.557 15.008 A 7.504 7.504 0 0 1 295.352 15.02 Z M 142.803 4.092 L 142.92 3.721 A 1.038 1.038 0 0 1 143.344 3.178 A 1.578 1.578 0 0 1 143.633 3.027 A 6.683 6.683 0 0 1 143.818 2.957 Q 143.915 2.921 144.027 2.883 A 16.117 16.117 0 0 1 144.268 2.803 L 145.127 2.51 A 47.583 47.583 0 0 1 145.867 2.29 A 52.983 52.983 0 0 1 146.123 2.217 L 147.119 1.924 A 41.117 41.117 0 0 1 147.603 1.791 Q 148.293 1.605 148.81 1.496 A 14.274 14.274 0 0 1 148.818 1.494 L 149.346 3.867 Q 149.178 3.907 148.959 3.952 A 20.337 20.337 0 0 1 148.75 3.994 L 146.367 4.443 L 145.693 4.58 A 31.355 31.355 0 0 0 145.556 4.612 Q 145.424 4.644 145.331 4.668 A 6.739 6.739 0 0 0 145.254 4.687 Q 145.012 5.656 144.984 7.399 A 29.14 29.14 0 0 0 144.98 7.861 Q 144.98 10.012 145.189 11.268 A 7.001 7.001 0 0 0 145.312 11.865 A 25.211 25.211 0 0 0 145.74 11.963 A 31.423 31.423 0 0 0 146.201 12.061 L 148.213 12.471 L 149.16 12.646 L 148.613 14.902 A 30.068 30.068 0 0 1 147.773 14.741 A 22.872 22.872 0 0 1 147.012 14.57 A 283.198 283.198 0 0 1 146.065 14.343 Q 144.449 13.952 143.982 13.812 A 2.839 2.839 0 0 1 143.862 13.774 A 8.061 8.061 0 0 1 143.721 13.724 Q 143.439 13.619 143.359 13.56 A 0.709 0.709 0 0 1 143.241 13.446 A 0.89 0.89 0 0 1 143.184 13.369 A 1.657 1.657 0 0 1 143.006 12.963 Q 142.777 12.237 142.633 10.594 A 42.592 42.592 0 0 1 142.549 9.424 A 21.583 21.583 0 0 1 142.5 7.988 A 30.186 30.186 0 0 1 142.507 7.311 A 23.878 23.878 0 0 1 142.529 6.685 A 28.689 28.689 0 0 1 142.579 5.889 A 24.34 24.34 0 0 1 142.607 5.547 Q 142.715 4.336 142.803 4.092 Z M 213.643 4.092 L 213.76 3.721 A 1.038 1.038 0 0 1 214.184 3.178 A 1.578 1.578 0 0 1 214.473 3.027 A 6.683 6.683 0 0 1 214.658 2.957 Q 214.754 2.921 214.867 2.883 A 16.117 16.117 0 0 1 215.107 2.803 L 215.967 2.51 A 47.583 47.583 0 0 1 216.707 2.29 A 52.983 52.983 0 0 1 216.963 2.217 L 217.959 1.924 A 41.117 41.117 0 0 1 218.442 1.791 Q 219.133 1.605 219.65 1.496 A 14.274 14.274 0 0 1 219.658 1.494 L 220.186 3.867 Q 220.018 3.907 219.799 3.952 A 20.337 20.337 0 0 1 219.59 3.994 L 217.207 4.443 L 216.533 4.58 A 31.355 31.355 0 0 0 216.396 4.612 Q 216.264 4.644 216.17 4.668 A 6.739 6.739 0 0 0 216.094 4.687 Q 215.852 5.656 215.824 7.399 A 29.14 29.14 0 0 0 215.82 7.861 Q 215.82 10.012 216.029 11.268 A 7.001 7.001 0 0 0 216.152 11.865 A 25.211 25.211 0 0 0 216.58 11.963 A 31.423 31.423 0 0 0 217.041 12.061 L 219.053 12.471 L 220 12.646 L 219.453 14.902 A 30.068 30.068 0 0 1 218.613 14.741 A 22.872 22.872 0 0 1 217.852 14.57 A 283.198 283.198 0 0 1 216.905 14.343 Q 215.289 13.952 214.822 13.812 A 2.839 2.839 0 0 1 214.702 13.774 A 8.061 8.061 0 0 1 214.561 13.724 Q 214.279 13.619 214.199 13.56 A 0.709 0.709 0 0 1 214.081 13.446 A 0.89 0.89 0 0 1 214.023 13.369 A 1.657 1.657 0 0 1 213.846 12.963 Q 213.617 12.237 213.473 10.594 A 42.592 42.592 0 0 1 213.389 9.424 A 21.583 21.583 0 0 1 213.34 7.988 A 30.186 30.186 0 0 1 213.347 7.311 A 23.878 23.878 0 0 1 213.369 6.685 A 28.689 28.689 0 0 1 213.419 5.889 A 24.34 24.34 0 0 1 213.447 5.547 Q 213.555 4.336 213.643 4.092 Z M 260.508 4.092 L 260.625 3.721 A 1.038 1.038 0 0 1 261.05 3.178 A 1.578 1.578 0 0 1 261.338 3.027 A 6.683 6.683 0 0 1 261.523 2.957 Q 261.62 2.921 261.732 2.883 A 16.117 16.117 0 0 1 261.973 2.803 L 262.832 2.51 A 47.583 47.583 0 0 1 263.572 2.29 A 52.983 52.983 0 0 1 263.828 2.217 L 264.824 1.924 A 41.117 41.117 0 0 1 265.308 1.791 Q 265.998 1.605 266.515 1.496 A 14.274 14.274 0 0 1 266.523 1.494 L 267.051 3.867 Q 266.883 3.907 266.664 3.952 A 20.337 20.337 0 0 1 266.455 3.994 L 264.072 4.443 L 263.398 4.58 A 31.355 31.355 0 0 0 263.261 4.612 Q 263.129 4.644 263.036 4.668 A 6.739 6.739 0 0 0 262.959 4.687 Q 262.717 5.656 262.689 7.399 A 29.14 29.14 0 0 0 262.686 7.861 Q 262.686 10.012 262.894 11.268 A 7.001 7.001 0 0 0 263.018 11.865 A 25.211 25.211 0 0 0 263.445 11.963 A 31.423 31.423 0 0 0 263.906 12.061 L 265.918 12.471 L 266.865 12.646 L 266.318 14.902 A 30.068 30.068 0 0 1 265.479 14.741 A 22.872 22.872 0 0 1 264.717 14.57 A 283.198 283.198 0 0 1 263.77 14.343 Q 262.154 13.952 261.687 13.812 A 2.839 2.839 0 0 1 261.567 13.774 A 8.061 8.061 0 0 1 261.426 13.724 Q 261.144 13.619 261.064 13.56 A 0.709 0.709 0 0 1 260.946 13.446 A 0.89 0.89 0 0 1 260.889 13.369 A 1.657 1.657 0 0 1 260.711 12.963 Q 260.482 12.237 260.338 10.594 A 42.592 42.592 0 0 1 260.254 9.424 A 21.583 21.583 0 0 1 260.205 7.988 A 30.186 30.186 0 0 1 260.212 7.311 A 23.878 23.878 0 0 1 260.234 6.685 A 28.689 28.689 0 0 1 260.284 5.889 A 24.34 24.34 0 0 1 260.312 5.547 Q 260.42 4.336 260.508 4.092 Z M 72.285 12.939 L 72.217 7.9 Q 72.217 6.873 72.385 6.526 A 0.374 0.374 0 0 1 72.49 6.387 A 7.242 7.242 0 0 1 72.819 6.154 A 9.201 9.201 0 0 1 73.105 5.972 A 9.162 9.162 0 0 1 73.559 5.711 A 11.191 11.191 0 0 1 73.857 5.557 Q 74.268 5.352 74.712 5.166 A 14.036 14.036 0 0 1 75.532 4.852 A 12.831 12.831 0 0 1 75.586 4.834 Q 76.299 4.591 76.732 4.537 A 1.834 1.834 0 0 1 76.958 4.521 A 7.821 7.821 0 0 1 77.225 4.526 Q 77.501 4.535 77.695 4.565 A 2.392 2.392 0 0 1 78.03 4.641 A 1.998 1.998 0 0 1 78.213 4.707 A 1.424 1.424 0 0 1 78.478 4.849 Q 78.769 5.052 78.818 5.361 Q 79.081 7.024 79.13 9.204 A 45.723 45.723 0 0 1 79.141 10.225 L 79.141 10.801 L 74.463 10.859 L 74.463 12.129 A 15.241 15.241 0 0 0 75.075 12.264 Q 75.416 12.332 75.801 12.396 A 28.728 28.728 0 0 0 76.279 12.471 L 77.959 12.744 A 37.319 37.319 0 0 1 79.277 12.969 L 78.701 15.107 A 36.735 36.735 0 0 1 75.395 14.426 A 46.061 46.061 0 0 1 72.998 13.75 A 1.473 1.473 0 0 1 72.693 13.615 Q 72.507 13.503 72.406 13.346 A 0.783 0.783 0 0 1 72.285 12.939 Z M 303.535 12.939 L 303.467 7.9 Q 303.467 6.873 303.635 6.526 A 0.374 0.374 0 0 1 303.74 6.387 A 7.242 7.242 0 0 1 304.069 6.154 A 9.201 9.201 0 0 1 304.355 5.972 A 9.162 9.162 0 0 1 304.809 5.711 A 11.191 11.191 0 0 1 305.107 5.557 Q 305.518 5.352 305.962 5.166 A 14.036 14.036 0 0 1 306.782 4.852 A 12.831 12.831 0 0 1 306.836 4.834 Q 307.549 4.591 307.982 4.537 A 1.834 1.834 0 0 1 308.208 4.521 A 7.821 7.821 0 0 1 308.475 4.526 Q 308.751 4.535 308.945 4.565 A 2.392 2.392 0 0 1 309.28 4.641 A 1.998 1.998 0 0 1 309.463 4.707 A 1.424 1.424 0 0 1 309.728 4.849 Q 310.019 5.052 310.068 5.361 Q 310.331 7.024 310.38 9.204 A 45.723 45.723 0 0 1 310.391 10.225 L 310.391 10.801 L 305.713 10.859 L 305.713 12.129 A 15.241 15.241 0 0 0 306.325 12.264 Q 306.666 12.332 307.051 12.396 A 28.728 28.728 0 0 0 307.529 12.471 L 309.209 12.744 A 37.319 37.319 0 0 1 310.527 12.969 L 309.951 15.107 A 36.735 36.735 0 0 1 306.645 14.426 A 46.061 46.061 0 0 1 304.248 13.75 A 1.473 1.473 0 0 1 303.943 13.615 Q 303.757 13.503 303.656 13.346 A 0.783 0.783 0 0 1 303.535 12.939 Z M 222.285 14.482 L 222.129 6.826 L 222.109 5.02 L 224.189 4.805 L 224.531 6.289 L 226.025 4.648 L 227.188 4.648 L 227.676 6.934 L 226.143 7.266 A 65.796 65.796 0 0 0 225.016 7.516 A 72.994 72.994 0 0 0 224.629 7.607 L 224.492 14.287 L 222.285 14.482 Z M 288.789 14.482 L 288.633 6.826 L 288.613 5.02 L 290.693 4.805 L 291.035 6.289 L 292.529 4.648 L 293.691 4.648 L 294.18 6.934 L 292.646 7.266 A 65.796 65.796 0 0 0 291.52 7.516 A 72.994 72.994 0 0 0 291.133 7.607 L 290.996 14.287 L 288.789 14.482 Z M 105.684 10.264 L 105.957 8.262 L 112.549 8.164 L 112.451 10.186 A 85.842 85.842 0 0 0 112.01 10.205 Q 111.463 10.23 111.154 10.253 A 10.807 10.807 0 0 0 111.084 10.259 A 40.902 40.902 0 0 1 110.883 10.275 Q 110.615 10.295 110.418 10.306 A 13.394 13.394 0 0 1 110.391 10.308 A 75.495 75.495 0 0 0 110.105 10.323 A 96.615 96.615 0 0 0 109.795 10.342 A 37.885 37.885 0 0 1 108.516 10.371 A 34.174 34.174 0 0 1 108.34 10.371 Q 107.762 10.371 107.477 10.368 A 16.819 16.819 0 0 1 107.368 10.366 A 11.576 11.576 0 0 1 107.121 10.359 Q 106.996 10.354 106.885 10.347 A 57.207 57.207 0 0 1 106.659 10.331 A 75.646 75.646 0 0 1 106.411 10.313 Q 106.213 10.298 105.892 10.277 A 111.912 111.912 0 0 0 105.684 10.264 Z M 76.943 8.906 L 76.943 8.701 A 10.19 10.19 0 0 0 76.856 7.394 A 12.189 12.189 0 0 0 76.758 6.768 A 6.433 6.433 0 0 0 76.529 6.771 Q 76.31 6.779 76.155 6.803 A 1.837 1.837 0 0 0 76.133 6.807 A 4.053 4.053 0 0 0 75.664 6.914 A 8.063 8.063 0 0 0 75.246 7.049 A 8.831 8.831 0 0 0 75.186 7.07 A 7.822 7.822 0 0 0 74.937 7.163 Q 74.566 7.31 74.424 7.422 L 74.424 9.18 L 76.943 8.906 Z M 308.193 8.906 L 308.193 8.701 A 10.19 10.19 0 0 0 308.106 7.394 A 12.189 12.189 0 0 0 308.008 6.768 A 6.433 6.433 0 0 0 307.779 6.771 Q 307.56 6.779 307.405 6.803 A 1.837 1.837 0 0 0 307.383 6.807 A 4.053 4.053 0 0 0 306.914 6.914 A 8.063 8.063 0 0 0 306.496 7.049 A 8.831 8.831 0 0 0 306.436 7.07 A 7.822 7.822 0 0 0 306.187 7.163 Q 305.816 7.31 305.674 7.422 L 305.674 9.18 L 308.193 8.906 Z" vector-effect="non-scaling-stroke"/></g></svg>